# xmcd CD database file
#
# Track frame offsets:
#	150
#	23962
#	46015
#	67097
#	88490
#	109572
#	137837
#	159045
#	179230
#	198740
#
# Disc length: 2915 seconds
#
# Revision: 0
# Processed by: cddbd v1.5.1PL0 Copyright (c) Steve Scherf et al.
# Submitted via: CDex 1.51
#
DISCID=8e0b610a
DTITLE=Pucho And His Latin Soul Brothers - The Hideout
DYEAR=2004
DGENRE=Jazz
TTITLE0=The Hideout
TTITLE1=El Abaniquito
TTITLE2=Born to Groove
TTITLE3=Guajeo En Dominante
TTITLE4=Ruby
TTITLE5=Superstition
TTITLE6=Para Mongo
TTITLE7=Good News
TTITLE8=Quiet Village
TTITLE9=Facil
EXTD=YEAR: 2004
EXTT0=
EXTT1=
EXTT2=
EXTT3=
EXTT4=
EXTT5=
EXTT6=
EXTT7=
EXTT8=
EXTT9=
PLAYORDER=
